<svg width="40" height="40" viewBox="0 0 40 40" fill="none" xmlns="http://www.w3.org/2000/svg">
<g clip-path="url(#clip0_266_143)">
<g filter="url(#filter0_d_266_143)">
<path d="M27.75 4C28.9926 4 30 5.00736 30 6.25V17.7546C30 18.9972 28.9926 20.0046 27.75 20.0046H12.25C11.0074 20.0046 10 18.9972 10 17.7546V6.25C10 5.00736 11.0074 4 12.25 4H27.75ZM27.75 5.5H12.25C11.8358 5.5 11.5 5.83579 11.5 6.25V17.7546C11.5 18.1688 11.8358 18.5046 12.25 18.5046H27.75C28.1642 18.5046 28.5 18.1688 28.5 17.7546V6.25C28.5 5.83579 28.1642 5.5 27.75 5.5ZM17.75 12.5C18.1642 12.5 18.5 12.8358 18.5 13.25V13.7427L18.4921 13.8513C18.3293 14.9642 17.3977 15.5009 15.9999 15.5009C14.6021 15.5009 13.6705 14.9637 13.5079 13.8501L13.5 13.7418V13.25C13.5 12.8358 13.8358 12.5 14.25 12.5H17.75ZM21.2523 12.9961H25.75C26.1642 12.9961 26.5 13.3319 26.5 13.7461C26.5 14.1258 26.2178 14.4396 25.8518 14.4893L25.75 14.4961H21.2523C20.8381 14.4961 20.5023 14.1604 20.5023 13.7461C20.5023 13.3664 20.7844 13.0526 21.1505 13.003L21.2523 12.9961ZM16 8.50218C16.8284 8.50218 17.5 9.17374 17.5 10.0022C17.5 10.8306 16.8284 11.5021 16 11.5021C15.1716 11.5021 14.5 10.8306 14.5 10.0022C14.5 9.17374 15.1716 8.50218 16 8.50218ZM21.2523 9.5H25.75C26.1642 9.5 26.5 9.83579 26.5 10.25C26.5 10.6297 26.2178 10.9435 25.8518 10.9932L25.75 11H21.2523C20.8381 11 20.5023 10.6642 20.5023 10.25C20.5023 9.8703 20.7844 9.55651 21.1505 9.50685L21.2523 9.5Z" fill="#F98B00"/>
</g>
<g filter="url(#filter1_d_266_143)">
<path d="M27.75 4C28.9926 4 30 5.00736 30 6.25V17.7546C30 18.9972 28.9926 20.0046 27.75 20.0046H12.25C11.0074 20.0046 10 18.9972 10 17.7546V6.25C10 5.00736 11.0074 4 12.25 4H27.75ZM27.75 5.5H12.25C11.8358 5.5 11.5 5.83579 11.5 6.25V17.7546C11.5 18.1688 11.8358 18.5046 12.25 18.5046H27.75C28.1642 18.5046 28.5 18.1688 28.5 17.7546V6.25C28.5 5.83579 28.1642 5.5 27.75 5.5ZM17.75 12.5C18.1642 12.5 18.5 12.8358 18.5 13.25V13.7427L18.4921 13.8513C18.3293 14.9642 17.3977 15.5009 15.9999 15.5009C14.6021 15.5009 13.6705 14.9637 13.5079 13.8501L13.5 13.7418V13.25C13.5 12.8358 13.8358 12.5 14.25 12.5H17.75ZM21.2523 12.9961H25.75C26.1642 12.9961 26.5 13.3319 26.5 13.7461C26.5 14.1258 26.2178 14.4396 25.8518 14.4893L25.75 14.4961H21.2523C20.8381 14.4961 20.5023 14.1604 20.5023 13.7461C20.5023 13.3664 20.7844 13.0526 21.1505 13.003L21.2523 12.9961ZM16 8.50218C16.8284 8.50218 17.5 9.17374 17.5 10.0022C17.5 10.8306 16.8284 11.5021 16 11.5021C15.1716 11.5021 14.5 10.8306 14.5 10.0022C14.5 9.17374 15.1716 8.50218 16 8.50218ZM21.2523 9.5H25.75C26.1642 9.5 26.5 9.83579 26.5 10.25C26.5 10.6297 26.2178 10.9435 25.8518 10.9932L25.75 11H21.2523C20.8381 11 20.5023 10.6642 20.5023 10.25C20.5023 9.8703 20.7844 9.55651 21.1505 9.50685L21.2523 9.5Z" fill="#F98B00"/>
</g>
</g>
<g clip-path="url(#clip1_266_143)" filter="url(#filter2_df_266_143)">
<g filter="url(#filter3_d_266_143)">
<path d="M27.75 4C28.9926 4 30 5.00736 30 6.25V17.7546C30 18.9972 28.9926 20.0046 27.75 20.0046H12.25C11.0074 20.0046 10 18.9972 10 17.7546V6.25C10 5.00736 11.0074 4 12.25 4H27.75ZM27.75 5.5H12.25C11.8358 5.5 11.5 5.83579 11.5 6.25V17.7546C11.5 18.1688 11.8358 18.5046 12.25 18.5046H27.75C28.1642 18.5046 28.5 18.1688 28.5 17.7546V6.25C28.5 5.83579 28.1642 5.5 27.75 5.5ZM17.75 12.5C18.1642 12.5 18.5 12.8358 18.5 13.25V13.7427L18.4921 13.8513C18.3293 14.9642 17.3977 15.5009 15.9999 15.5009C14.6021 15.5009 13.6705 14.9637 13.5079 13.8501L13.5 13.7418V13.25C13.5 12.8358 13.8358 12.5 14.25 12.5H17.75ZM21.2523 12.9961H25.75C26.1642 12.9961 26.5 13.3319 26.5 13.7461C26.5 14.1258 26.2178 14.4396 25.8518 14.4893L25.75 14.4961H21.2523C20.8381 14.4961 20.5023 14.1604 20.5023 13.7461C20.5023 13.3664 20.7844 13.0526 21.1505 13.003L21.2523 12.9961ZM16 8.50218C16.8284 8.50218 17.5 9.17374 17.5 10.0022C17.5 10.8306 16.8284 11.5021 16 11.5021C15.1716 11.5021 14.5 10.8306 14.5 10.0022C14.5 9.17374 15.1716 8.50218 16 8.50218ZM21.2523 9.5H25.75C26.1642 9.5 26.5 9.83579 26.5 10.25C26.5 10.6297 26.2178 10.9435 25.8518 10.9932L25.75 11H21.2523C20.8381 11 20.5023 10.6642 20.5023 10.25C20.5023 9.8703 20.7844 9.55651 21.1505 9.50685L21.2523 9.5Z" fill="#F98B00"/>
</g>
<g filter="url(#filter4_d_266_143)">
<path d="M27.75 4C28.9926 4 30 5.00736 30 6.25V17.7546C30 18.9972 28.9926 20.0046 27.75 20.0046H12.25C11.0074 20.0046 10 18.9972 10 17.7546V6.25C10 5.00736 11.0074 4 12.25 4H27.75ZM27.75 5.5H12.25C11.8358 5.5 11.5 5.83579 11.5 6.25V17.7546C11.5 18.1688 11.8358 18.5046 12.25 18.5046H27.75C28.1642 18.5046 28.5 18.1688 28.5 17.7546V6.25C28.5 5.83579 28.1642 5.5 27.75 5.5ZM17.75 12.5C18.1642 12.5 18.5 12.8358 18.5 13.25V13.7427L18.4921 13.8513C18.3293 14.9642 17.3977 15.5009 15.9999 15.5009C14.6021 15.5009 13.6705 14.9637 13.5079 13.8501L13.5 13.7418V13.25C13.5 12.8358 13.8358 12.5 14.25 12.5H17.75ZM21.2523 12.9961H25.75C26.1642 12.9961 26.5 13.3319 26.5 13.7461C26.5 14.1258 26.2178 14.4396 25.8518 14.4893L25.75 14.4961H21.2523C20.8381 14.4961 20.5023 14.1604 20.5023 13.7461C20.5023 13.3664 20.7844 13.0526 21.1505 13.003L21.2523 12.9961ZM16 8.50218C16.8284 8.50218 17.5 9.17374 17.5 10.0022C17.5 10.8306 16.8284 11.5021 16 11.5021C15.1716 11.5021 14.5 10.8306 14.5 10.0022C14.5 9.17374 15.1716 8.50218 16 8.50218ZM21.2523 9.5H25.75C26.1642 9.5 26.5 9.83579 26.5 10.25C26.5 10.6297 26.2178 10.9435 25.8518 10.9932L25.75 11H21.2523C20.8381 11 20.5023 10.6642 20.5023 10.25C20.5023 9.8703 20.7844 9.55651 21.1505 9.50685L21.2523 9.5Z" fill="#F98B00"/>
</g>
</g>
<defs>
<filter id="filter0_d_266_143" x="10" y="4" width="220" height="216.005" filterUnits="userSpaceOnUse" color-interpolation-filters="sRGB">
<feFlood flood-opacity="0" result="BackgroundImageFix"/>
<feColorMatrix in="SourceAlpha" type="matrix" values="0 0 0 0 0 0 0 0 0 0 0 0 0 0 0 0 0 0 127 0" result="hardAlpha"/>
<feOffset dx="100" dy="100"/>
<feGaussianBlur stdDeviation="50"/>
<feComposite in2="hardAlpha" operator="out"/>
<feColorMatrix type="matrix" values="0 0 0 0 0.976471 0 0 0 0 0.545098 0 0 0 0 0 0 0 0 0.25 0"/>
<feBlend mode="normal" in2="BackgroundImageFix" result="effect1_dropShadow_266_143"/>
<feBlend mode="normal" in="SourceGraphic" in2="effect1_dropShadow_266_143" result="shape"/>
</filter>
<filter id="filter1_d_266_143" x="10" y="4" width="220" height="216.005" filterUnits="userSpaceOnUse" color-interpolation-filters="sRGB">
<feFlood flood-opacity="0" result="BackgroundImageFix"/>
<feColorMatrix in="SourceAlpha" type="matrix" values="0 0 0 0 0 0 0 0 0 0 0 0 0 0 0 0 0 0 127 0" result="hardAlpha"/>
<feOffset dx="100" dy="100"/>
<feGaussianBlur stdDeviation="50"/>
<feComposite in2="hardAlpha" operator="out"/>
<feColorMatrix type="matrix" values="0 0 0 0 0.976471 0 0 0 0 0.545098 0 0 0 0 0 0 0 0 0.25 0"/>
<feBlend mode="normal" in2="BackgroundImageFix" result="effect1_dropShadow_266_143"/>
<feBlend mode="normal" in="SourceGraphic" in2="effect1_dropShadow_266_143" result="shape"/>
</filter>
<filter id="filter2_df_266_143" x="-2" y="-4" width="44" height="48" filterUnits="userSpaceOnUse" color-interpolation-filters="sRGB">
<feFlood flood-opacity="0" result="BackgroundImageFix"/>
<feColorMatrix in="SourceAlpha" type="matrix" values="0 0 0 0 0 0 0 0 0 0 0 0 0 0 0 0 0 0 127 0" result="hardAlpha"/>
<feOffset dy="10"/>
<feGaussianBlur stdDeviation="5"/>
<feColorMatrix type="matrix" values="0 0 0 0 0 0 0 0 0 0 0 0 0 0 0 0 0 0 0.25 0"/>
<feBlend mode="normal" in2="BackgroundImageFix" result="effect1_dropShadow_266_143"/>
<feBlend mode="normal" in="SourceGraphic" in2="effect1_dropShadow_266_143" result="shape"/>
<feGaussianBlur stdDeviation="2" result="effect2_foregroundBlur_266_143"/>
</filter>
<filter id="filter3_d_266_143" x="10" y="4" width="220" height="216.005" filterUnits="userSpaceOnUse" color-interpolation-filters="sRGB">
<feFlood flood-opacity="0" result="BackgroundImageFix"/>
<feColorMatrix in="SourceAlpha" type="matrix" values="0 0 0 0 0 0 0 0 0 0 0 0 0 0 0 0 0 0 127 0" result="hardAlpha"/>
<feOffset dx="100" dy="100"/>
<feGaussianBlur stdDeviation="50"/>
<feComposite in2="hardAlpha" operator="out"/>
<feColorMatrix type="matrix" values="0 0 0 0 0.976471 0 0 0 0 0.545098 0 0 0 0 0 0 0 0 0.25 0"/>
<feBlend mode="normal" in2="BackgroundImageFix" result="effect1_dropShadow_266_143"/>
<feBlend mode="normal" in="SourceGraphic" in2="effect1_dropShadow_266_143" result="shape"/>
</filter>
<filter id="filter4_d_266_143" x="10" y="4" width="220" height="216.005" filterUnits="userSpaceOnUse" color-interpolation-filters="sRGB">
<feFlood flood-opacity="0" result="BackgroundImageFix"/>
<feColorMatrix in="SourceAlpha" type="matrix" values="0 0 0 0 0 0 0 0 0 0 0 0 0 0 0 0 0 0 127 0" result="hardAlpha"/>
<feOffset dx="100" dy="100"/>
<feGaussianBlur stdDeviation="50"/>
<feComposite in2="hardAlpha" operator="out"/>
<feColorMatrix type="matrix" values="0 0 0 0 0.976471 0 0 0 0 0.545098 0 0 0 0 0 0 0 0 0.25 0"/>
<feBlend mode="normal" in2="BackgroundImageFix" result="effect1_dropShadow_266_143"/>
<feBlend mode="normal" in="SourceGraphic" in2="effect1_dropShadow_266_143" result="shape"/>
</filter>
<clipPath id="clip0_266_143">
<rect width="24" height="24" fill="white" transform="translate(8)"/>
</clipPath>
<clipPath id="clip1_266_143">
<rect width="24" height="24" fill="white" transform="translate(8)"/>
</clipPath>
</defs>
</svg>
