<svg width="150" height="188" viewBox="0 0 150 188" fill="none" xmlns="http://www.w3.org/2000/svg">
<ellipse cx="11.8902" cy="176.136" rx="11.8902" ry="11.8641" fill="#F89602" fill-opacity="0.56"/>
<ellipse cx="53.9634" cy="176.136" rx="11.8902" ry="11.8641" fill="#F89602" fill-opacity="0.56"/>
<ellipse cx="138.11" cy="176.136" rx="11.8902" ry="11.8641" fill="#F89602" fill-opacity="0.56"/>
<ellipse cx="96.0366" cy="176.136" rx="11.8902" ry="11.8641" fill="#F89602" fill-opacity="0.56"/>
<ellipse cx="11.8902" cy="11.8641" rx="11.8902" ry="11.8641" fill="#F89602" fill-opacity="0.56"/>
<ellipse cx="53.9634" cy="11.8641" rx="11.8902" ry="11.8641" fill="#F89602" fill-opacity="0.56"/>
<ellipse cx="138.11" cy="11.8641" rx="11.8902" ry="11.8641" fill="#F89602" fill-opacity="0.56"/>
<ellipse cx="96.0366" cy="11.8641" rx="11.8902" ry="11.8641" fill="#F89602" fill-opacity="0.56"/>
<ellipse cx="11.8902" cy="44.7186" rx="11.8902" ry="11.8641" fill="#F89602" fill-opacity="0.56"/>
<ellipse cx="53.9634" cy="44.7186" rx="11.8902" ry="11.8641" fill="#F89602" fill-opacity="0.56"/>
<ellipse cx="138.11" cy="44.7186" rx="11.8902" ry="11.8641" fill="#F89602" fill-opacity="0.56"/>
<ellipse cx="96.0366" cy="44.7186" rx="11.8902" ry="11.8641" fill="#F89602" fill-opacity="0.56"/>
<ellipse cx="11.8902" cy="77.5728" rx="11.8902" ry="11.8641" fill="#F89602" fill-opacity="0.56"/>
<ellipse cx="53.9634" cy="77.5728" rx="11.8902" ry="11.8641" fill="#F89602" fill-opacity="0.56"/>
<ellipse cx="138.11" cy="77.5728" rx="11.8902" ry="11.8641" fill="#F89602" fill-opacity="0.56"/>
<ellipse cx="96.0366" cy="77.5728" rx="11.8902" ry="11.8641" fill="#F89602" fill-opacity="0.56"/>
<ellipse cx="11.8902" cy="110.427" rx="11.8902" ry="11.8641" fill="#F89602" fill-opacity="0.56"/>
<ellipse cx="53.9634" cy="110.427" rx="11.8902" ry="11.8641" fill="#F89602" fill-opacity="0.56"/>
<ellipse cx="138.11" cy="110.427" rx="11.8902" ry="11.8641" fill="#F89602" fill-opacity="0.56"/>
<ellipse cx="96.0366" cy="110.427" rx="11.8902" ry="11.8641" fill="#F89602" fill-opacity="0.56"/>
<ellipse cx="11.8902" cy="143.282" rx="11.8902" ry="11.8641" fill="#F89602" fill-opacity="0.56"/>
<ellipse cx="53.9634" cy="143.282" rx="11.8902" ry="11.8641" fill="#F89602" fill-opacity="0.56"/>
<ellipse cx="138.11" cy="143.282" rx="11.8902" ry="11.8641" fill="#F89602" fill-opacity="0.56"/>
<ellipse cx="96.0366" cy="143.282" rx="11.8902" ry="11.8641" fill="#F89602" fill-opacity="0.56"/>
</svg>
