<svg width="499" height="470" viewBox="0 0 499 470" fill="none" xmlns="http://www.w3.org/2000/svg">
<g clip-path="url(#clip0_278_220)" filter="url(#filter0_f_278_220)">
<path d="M422.125 257.874H307.375V276.999H422.125V257.874Z" fill="#F89602"/>
<path d="M422.125 200.5H250V219.625H422.125V200.5Z" fill="#F89602"/>
<path d="M441.25 47.5H58.75C37.712 47.5 20.5 64.712 20.5 85.75V334.375C20.5 355.412 37.712 372.625 58.75 372.625H97V449.125L144.812 401.313L192.624 449.125V372.625H441.25C462.287 372.625 479.5 355.412 479.5 334.375V85.75C479.5 64.712 462.287 47.5 441.25 47.5ZM173.5 403.224L144.812 374.536L116.124 403.224V328.637C125.686 332.462 135.249 334.374 144.812 334.374C154.375 334.374 163.937 332.462 173.5 328.637V403.224ZM144.812 315.25C118.037 315.25 97 294.213 97 267.438C97 240.663 118.038 219.626 144.812 219.626C171.586 219.626 192.624 240.663 192.624 267.438C192.624 294.213 171.587 315.25 144.812 315.25ZM460.375 334.374C460.375 345.849 452.725 353.499 441.25 353.499H192.625V313.337C204.1 301.861 211.75 284.649 211.75 267.437C211.75 231.1 181.15 200.499 144.812 200.499C108.474 200.499 77.874 231.099 77.874 267.437C77.874 286.562 85.524 301.862 96.999 313.337V353.499H58.75C47.275 353.499 39.625 343.937 39.625 334.374V85.75C39.625 74.275 47.275 66.625 58.75 66.625H441.25C452.725 66.625 460.375 76.187 460.375 85.75V334.374Z" fill="#F89602"/>
<path d="M422.125 143.124H77.875V162.249H422.125V143.124Z" fill="#F89602"/>
</g>
<g clip-path="url(#clip1_278_220)">
<path d="M422.125 253.874H307.375V272.999H422.125V253.874Z" fill="#F89602"/>
<path d="M422.125 196.5H250V215.625H422.125V196.5Z" fill="#F89602"/>
<path d="M441.25 43.5H58.75C37.712 43.5 20.5 60.712 20.5 81.75V330.375C20.5 351.412 37.712 368.625 58.75 368.625H97V445.125L144.812 397.313L192.624 445.125V368.625H441.25C462.287 368.625 479.5 351.412 479.5 330.375V81.75C479.5 60.712 462.287 43.5 441.25 43.5ZM173.5 399.224L144.812 370.536L116.124 399.224V324.637C125.686 328.462 135.249 330.374 144.812 330.374C154.375 330.374 163.937 328.462 173.5 324.637V399.224ZM144.812 311.25C118.037 311.25 97 290.213 97 263.438C97 236.663 118.038 215.626 144.812 215.626C171.586 215.626 192.624 236.663 192.624 263.438C192.624 290.213 171.587 311.25 144.812 311.25ZM460.375 330.374C460.375 341.849 452.725 349.499 441.25 349.499H192.625V309.337C204.1 297.861 211.75 280.649 211.75 263.437C211.75 227.1 181.15 196.499 144.812 196.499C108.474 196.499 77.874 227.099 77.874 263.437C77.874 282.562 85.524 297.862 96.999 309.337V349.499H58.75C47.275 349.499 39.625 339.937 39.625 330.374V81.75C39.625 70.275 47.275 62.625 58.75 62.625H441.25C452.725 62.625 460.375 72.187 460.375 81.75V330.374Z" fill="#F89602"/>
<path d="M422.125 139.124H77.875V158.249H422.125V139.124Z" fill="#F89602"/>
</g>
<defs>
<filter id="filter0_f_278_220" x="0" y="-16" width="499" height="499" filterUnits="userSpaceOnUse" color-interpolation-filters="sRGB">
<feFlood flood-opacity="0" result="BackgroundImageFix"/>
<feBlend mode="normal" in="SourceGraphic" in2="BackgroundImageFix" result="shape"/>
<feGaussianBlur stdDeviation="10" result="effect1_foregroundBlur_278_220"/>
</filter>
<clipPath id="clip0_278_220">
<rect width="459" height="459" fill="white" transform="translate(20 4)"/>
</clipPath>
<clipPath id="clip1_278_220">
<rect width="459" height="459" fill="white" transform="translate(20)"/>
</clipPath>
</defs>
</svg>
