<svg width="200" height="200" viewBox="0 0 200 200" fill="none" xmlns="http://www.w3.org/2000/svg">
<g filter="url(#filter0_f_278_211)">
<path d="M29.8809 149.062H84.3349V94.442H29.8789V149.062H29.8809ZM47.9689 114.4C47.9683 112.595 48.5025 110.83 49.504 109.328C50.5056 107.826 51.9295 106.654 53.5963 105.961C55.263 105.268 57.0977 105.084 58.869 105.432C60.6403 105.78 62.2687 106.645 63.5487 107.918C64.8288 109.191 65.703 110.815 66.0612 112.584C66.4194 114.353 66.2455 116.189 65.5614 117.86C64.8773 119.53 63.7136 120.961 62.2173 121.971C60.721 122.981 58.9591 123.525 57.1539 123.534H57.1059H57.0589C54.6449 123.519 52.3346 122.551 50.6318 120.84C48.929 119.129 47.9718 116.814 47.9689 114.4ZM57.1059 127.461H57.1539C60.0836 127.477 62.8881 128.651 64.956 130.726C67.0239 132.802 68.1874 135.61 68.1929 138.54V145.134H46.0189V138.54C46.0231 135.609 47.1862 132.799 49.2544 130.723C51.3227 128.646 54.1282 127.472 57.0589 127.456L57.1059 127.461ZM80.4059 145.137H72.1169V138.54C72.1236 136.568 71.738 134.615 70.9826 132.793C70.2272 130.972 69.1171 129.318 67.7169 127.93C66.6871 126.9 65.5136 126.024 64.2329 125.33C66.5926 123.794 68.3928 121.537 69.3652 118.895C70.3376 116.252 70.4302 113.367 69.6291 110.668C68.8281 107.968 67.1762 105.6 64.9199 103.916C62.6635 102.232 59.9234 101.323 57.1079 101.323C54.2924 101.323 51.5523 102.232 49.2959 103.916C47.0396 105.6 45.3878 107.968 44.5867 110.668C43.7856 113.367 43.8782 116.252 44.8506 118.895C45.8231 121.537 47.6232 123.794 49.9829 125.33C47.6004 126.617 45.6101 128.524 44.2224 130.85C42.8348 133.175 42.1014 135.832 42.0999 138.54V145.134H33.8059V98.367H80.4059V145.137Z" fill="#F89602"/>
<path d="M181.915 52.238C179.924 50.8061 177.532 50.0386 175.08 50.045H128.372C127.874 43.7986 125.042 37.9689 120.439 33.7168C115.837 29.4647 109.801 27.1023 103.535 27.1H96.8C90.5307 27.0929 84.4897 29.4521 79.8844 33.7059C75.279 37.9597 72.4487 43.7948 71.959 50.045H25.249C22.134 50.0455 19.1467 51.2828 16.9436 53.485C14.7404 55.6872 13.5019 58.674 13.5 61.789V161.68C13.5016 164.797 14.7403 167.785 16.9441 169.989C19.1478 172.193 22.1363 173.432 25.253 173.434H175.08C178.197 173.434 181.187 172.195 183.391 169.991C185.595 167.787 186.834 164.797 186.834 161.68V61.789C186.83 59.921 186.382 58.0806 185.527 56.4199C184.672 54.7591 183.434 53.3257 181.915 52.238ZM17.42 61.789C17.4227 59.7143 18.2487 57.7256 19.7166 56.2595C21.1845 54.7935 23.1744 53.97 25.249 53.97H75.808V52.007C75.8075 49.2504 76.3501 46.5208 77.405 43.974C78.4598 41.4272 80.0061 39.1133 81.9556 37.1644C83.9051 35.2154 86.2195 33.6698 88.7665 32.6157C91.3136 31.5616 94.0434 31.0197 96.8 31.021H103.54C109.105 31.0226 114.442 33.2341 118.378 37.1693C122.313 41.1046 124.525 46.4416 124.527 52.007V53.97H175.08C176.711 53.9646 178.303 54.4745 179.627 55.427C180.639 56.151 181.465 57.1055 182.035 58.2115C182.606 59.3176 182.905 60.5435 182.908 61.788V76.144H17.42V61.789ZM182.91 161.68C182.91 163.756 182.085 165.748 180.616 167.216C179.148 168.684 177.156 169.509 175.08 169.509H25.249C23.1732 169.507 21.1829 168.682 19.7151 167.214C18.2473 165.746 17.4219 163.756 17.42 161.68V80.068H182.91V161.68Z" fill="#F89602"/>
<path d="M100.17 41.038C98.0015 41.0368 95.8811 41.6788 94.0772 42.8827C92.2733 44.0867 90.8669 45.7985 90.036 47.8018C89.205 49.805 88.9868 52.0097 89.4089 54.137C89.831 56.2643 90.8744 58.2186 92.4073 59.7529C93.9401 61.2871 95.8935 62.3323 98.0204 62.7563C100.147 63.1804 102.352 62.9642 104.356 62.135C106.36 61.3059 108.073 59.9011 109.279 58.0983C110.485 56.2955 111.128 54.1757 111.129 52.007C111.126 49.1006 109.97 46.3141 107.916 44.258C105.862 42.202 103.077 41.0441 100.17 41.038ZM100.17 59.038C98.7774 59.039 97.4156 58.6268 96.2571 57.8536C95.0986 57.0804 94.1955 55.981 93.6621 54.6944C93.1286 53.4078 92.9888 51.9918 93.2603 50.6258C93.5317 49.2597 94.2023 48.0048 95.1872 47.0199C96.1721 46.0351 97.4269 45.3645 98.793 45.093C100.159 44.8215 101.575 44.9614 102.862 45.4948C104.148 46.0283 105.248 46.9314 106.021 48.0899C106.794 49.2484 107.206 50.6102 107.205 52.003C107.203 53.8686 106.462 55.6573 105.143 56.9768C103.824 58.2964 102.036 59.0391 100.17 59.042V59.038Z" fill="#F89602"/>
<path d="M168.621 96.2371H93.479V100.162H168.621V96.2371Z" fill="#F89602"/>
<path d="M136.843 119.034H93.479V122.959H136.843V119.034Z" fill="#F89602"/>
<path d="M136.843 143.032H93.479V146.957H136.843V143.032Z" fill="#F89602"/>
</g>
<path d="M29.8809 149.062H84.3349V94.442H29.8789V149.062H29.8809ZM47.9689 114.4C47.9683 112.595 48.5025 110.83 49.504 109.328C50.5056 107.826 51.9295 106.654 53.5963 105.961C55.263 105.268 57.0977 105.084 58.869 105.432C60.6403 105.78 62.2687 106.645 63.5487 107.918C64.8288 109.191 65.703 110.815 66.0612 112.584C66.4194 114.353 66.2455 116.189 65.5614 117.86C64.8773 119.53 63.7136 120.961 62.2173 121.971C60.721 122.981 58.9591 123.525 57.1539 123.534H57.1059H57.0589C54.6449 123.519 52.3346 122.551 50.6318 120.84C48.929 119.129 47.9718 116.814 47.9689 114.4ZM57.1059 127.461H57.1539C60.0836 127.477 62.8881 128.651 64.956 130.726C67.0239 132.802 68.1874 135.61 68.1929 138.54V145.134H46.0189V138.54C46.0231 135.609 47.1862 132.799 49.2544 130.723C51.3227 128.646 54.1282 127.472 57.0589 127.456L57.1059 127.461ZM80.4059 145.137H72.1169V138.54C72.1236 136.568 71.738 134.615 70.9826 132.793C70.2272 130.972 69.1171 129.318 67.7169 127.93C66.6871 126.9 65.5136 126.024 64.2329 125.33C66.5926 123.794 68.3928 121.537 69.3652 118.895C70.3376 116.252 70.4302 113.367 69.6291 110.668C68.8281 107.968 67.1762 105.6 64.9199 103.916C62.6635 102.232 59.9234 101.323 57.1079 101.323C54.2924 101.323 51.5523 102.232 49.2959 103.916C47.0396 105.6 45.3878 107.968 44.5867 110.668C43.7856 113.367 43.8782 116.252 44.8506 118.895C45.8231 121.537 47.6232 123.794 49.9829 125.33C47.6004 126.617 45.6101 128.524 44.2224 130.85C42.8348 133.175 42.1014 135.832 42.0999 138.54V145.134H33.8059V98.367H80.4059V145.137Z" fill="#F89602"/>
<path d="M181.915 52.238C179.924 50.8061 177.532 50.0386 175.08 50.045H128.372C127.874 43.7986 125.042 37.9689 120.439 33.7168C115.837 29.4647 109.801 27.1023 103.535 27.1H96.8C90.5307 27.0929 84.4897 29.4521 79.8844 33.7059C75.279 37.9597 72.4487 43.7948 71.959 50.045H25.249C22.134 50.0455 19.1467 51.2828 16.9436 53.485C14.7404 55.6872 13.5019 58.674 13.5 61.789V161.68C13.5016 164.797 14.7403 167.785 16.9441 169.989C19.1478 172.193 22.1363 173.432 25.253 173.434H175.08C178.197 173.434 181.187 172.195 183.391 169.991C185.595 167.787 186.834 164.797 186.834 161.68V61.789C186.83 59.921 186.382 58.0806 185.527 56.4199C184.672 54.7591 183.434 53.3257 181.915 52.238ZM17.42 61.789C17.4227 59.7143 18.2487 57.7256 19.7166 56.2595C21.1845 54.7935 23.1744 53.97 25.249 53.97H75.808V52.007C75.8075 49.2504 76.3501 46.5208 77.405 43.974C78.4598 41.4272 80.0061 39.1133 81.9556 37.1644C83.9051 35.2154 86.2195 33.6698 88.7665 32.6157C91.3136 31.5616 94.0434 31.0197 96.8 31.021H103.54C109.105 31.0226 114.442 33.2341 118.378 37.1693C122.313 41.1046 124.525 46.4416 124.527 52.007V53.97H175.08C176.711 53.9646 178.303 54.4745 179.627 55.427C180.639 56.151 181.465 57.1055 182.035 58.2115C182.606 59.3176 182.905 60.5435 182.908 61.788V76.144H17.42V61.789ZM182.91 161.68C182.91 163.756 182.085 165.748 180.616 167.216C179.148 168.684 177.156 169.509 175.08 169.509H25.249C23.1732 169.507 21.1829 168.682 19.7151 167.214C18.2473 165.746 17.4219 163.756 17.42 161.68V80.068H182.91V161.68Z" fill="#F89602"/>
<path d="M100.17 41.038C98.0015 41.0368 95.8811 41.6788 94.0772 42.8827C92.2733 44.0867 90.8669 45.7985 90.036 47.8018C89.205 49.805 88.9868 52.0097 89.4089 54.137C89.831 56.2643 90.8744 58.2186 92.4073 59.7529C93.9401 61.2871 95.8935 62.3323 98.0204 62.7563C100.147 63.1804 102.352 62.9642 104.356 62.135C106.36 61.3059 108.073 59.9011 109.279 58.0983C110.485 56.2955 111.128 54.1757 111.129 52.007C111.126 49.1006 109.97 46.3141 107.916 44.258C105.862 42.202 103.077 41.0441 100.17 41.038ZM100.17 59.038C98.7774 59.039 97.4156 58.6268 96.2571 57.8536C95.0986 57.0804 94.1955 55.981 93.6621 54.6944C93.1286 53.4078 92.9888 51.9918 93.2603 50.6258C93.5317 49.2597 94.2023 48.0048 95.1872 47.0199C96.1721 46.0351 97.4269 45.3645 98.793 45.093C100.159 44.8215 101.575 44.9614 102.862 45.4948C104.148 46.0283 105.248 46.9314 106.021 48.0899C106.794 49.2484 107.206 50.6102 107.205 52.003C107.203 53.8686 106.462 55.6573 105.143 56.9768C103.824 58.2964 102.036 59.0391 100.17 59.042V59.038Z" fill="#F89602"/>
<path d="M168.621 96.2371H93.479V100.162H168.621V96.2371Z" fill="#F89602"/>
<path d="M136.843 119.034H93.479V122.959H136.843V119.034Z" fill="#F89602"/>
<path d="M136.843 143.032H93.479V146.957H136.843V143.032Z" fill="#F89602"/>
<defs>
<filter id="filter0_f_278_211" x="-10" y="-10" width="220" height="220" filterUnits="userSpaceOnUse" color-interpolation-filters="sRGB">
<feFlood flood-opacity="0" result="BackgroundImageFix"/>
<feBlend mode="normal" in="SourceGraphic" in2="BackgroundImageFix" result="shape"/>
<feGaussianBlur stdDeviation="5" result="effect1_foregroundBlur_278_211"/>
</filter>
</defs>
</svg>
