<svg width="130" height="118" viewBox="0 0 130 118" fill="none" xmlns="http://www.w3.org/2000/svg">
<g filter="url(#filter0_df_277_174)">
<path d="M56.751 64.0981V70.2171L35 60.7891V55.5571L56.751 46.1301V52.2921L41.595 58.1311L56.751 64.0981Z" fill="#F89602"/>
<path d="M70.1999 46.0001L64.1449 70.9301C63.9439 71.7511 63.7679 72.4011 63.6159 72.8761C63.4649 73.3521 63.2339 73.7251 62.9249 73.9881C62.6149 74.2561 62.1639 74.3881 61.5729 74.3881C60.1029 74.3881 59.3669 73.7511 59.3669 72.4861C59.3669 72.1541 59.5119 71.3261 59.7999 70.0001L65.8329 45.0701C66.1499 43.7441 66.4519 42.8361 66.7399 42.3461C67.0289 41.8561 67.5909 41.6111 68.4279 41.6111C69.1489 41.6111 69.6989 41.7841 70.0809 42.1301C70.4629 42.4761 70.6539 42.9521 70.6539 43.5571C70.6539 44.0041 70.5019 44.8181 70.1999 46.0001Z" fill="#F89602"/>
<path d="M95 60.7891L73.249 70.2601V64.1411L88.449 58.1741L73.249 52.2921V46.2161L95 55.6001V60.7891Z" fill="#F89602"/>
<path d="M109 11H21C17.687 11 15 13.687 15 17V93C15 96.312 17.687 99 21 99H109C112.314 99 115 96.312 115 93V17C115 13.686 112.314 11 109 11ZM94 15C96.205 15 98 16.794 98 19C98 21.206 96.205 23 94 23C91.795 23 90 21.206 90 19C90 16.794 91.795 15 94 15ZM83 15C85.205 15 87 16.794 87 19C87 21.206 85.205 23 83 23C80.795 23 79 21.206 79 19C79 16.794 80.795 15 83 15ZM109 93H21V27H109V93ZM105 23C102.795 23 101 21.206 101 19C101 16.794 102.795 15 105 15C107.205 15 109 16.794 109 19C109 21.206 107.205 23 105 23Z" fill="#F89602"/>
</g>
<path d="M56.751 64.0981V70.2171L35 60.7891V55.5571L56.751 46.1301V52.2921L41.595 58.1311L56.751 64.0981Z" fill="#F89602"/>
<path d="M70.1999 46.0001L64.1449 70.9301C63.9439 71.7511 63.7679 72.4011 63.6159 72.8761C63.4649 73.3521 63.2339 73.7251 62.9249 73.9881C62.6149 74.2561 62.1639 74.3881 61.5729 74.3881C60.1029 74.3881 59.3669 73.7511 59.3669 72.4861C59.3669 72.1541 59.5119 71.3261 59.7999 70.0001L65.8329 45.0701C66.1499 43.7441 66.4519 42.8361 66.7399 42.3461C67.0289 41.8561 67.5909 41.6111 68.4279 41.6111C69.1489 41.6111 69.6989 41.7841 70.0809 42.1301C70.4629 42.4761 70.6539 42.9521 70.6539 43.5571C70.6539 44.0041 70.5019 44.8181 70.1999 46.0001Z" fill="#F89602"/>
<path d="M95 60.7891L73.249 70.2601V64.1411L88.449 58.1741L73.249 52.2921V46.2161L95 55.6001V60.7891Z" fill="#F89602"/>
<path d="M109 11H21C17.687 11 15 13.687 15 17V93C15 96.312 17.687 99 21 99H109C112.314 99 115 96.312 115 93V17C115 13.686 112.314 11 109 11ZM94 15C96.205 15 98 16.794 98 19C98 21.206 96.205 23 94 23C91.795 23 90 21.206 90 19C90 16.794 91.795 15 94 15ZM83 15C85.205 15 87 16.794 87 19C87 21.206 85.205 23 83 23C80.795 23 79 21.206 79 19C79 16.794 80.795 15 83 15ZM109 93H21V27H109V93ZM105 23C102.795 23 101 21.206 101 19C101 16.794 102.795 15 105 15C107.205 15 109 16.794 109 19C109 21.206 107.205 23 105 23Z" fill="#F89602"/>
<defs>
<filter id="filter0_df_277_174" x="0" y="-6" width="130" height="130" filterUnits="userSpaceOnUse" color-interpolation-filters="sRGB">
<feFlood flood-opacity="0" result="BackgroundImageFix"/>
<feColorMatrix in="SourceAlpha" type="matrix" values="0 0 0 0 0 0 0 0 0 0 0 0 0 0 0 0 0 0 127 0" result="hardAlpha"/>
<feOffset dy="4"/>
<feGaussianBlur stdDeviation="7.5"/>
<feComposite in2="hardAlpha" operator="out"/>
<feColorMatrix type="matrix" values="0 0 0 0 0.972549 0 0 0 0 0.588235 0 0 0 0 0.00784314 0 0 0 0.25 0"/>
<feBlend mode="normal" in2="BackgroundImageFix" result="effect1_dropShadow_277_174"/>
<feBlend mode="normal" in="SourceGraphic" in2="effect1_dropShadow_277_174" result="shape"/>
<feGaussianBlur stdDeviation="5" result="effect2_foregroundBlur_277_174"/>
</filter>
</defs>
</svg>
